<svg width="20" height="20" viewBox="0 0 20 20" fill="none" xmlns="http://www.w3.org/2000/svg">
<g id="fi:settings" clip-path="url(#clip0_78370_116)">
<path id="Vector" d="M10 12.5C11.3807 12.5 12.5 11.3807 12.5 10C12.5 8.61929 11.3807 7.5 10 7.5C8.61929 7.5 7.5 8.61929 7.5 10C7.5 11.3807 8.61929 12.5 10 12.5Z" stroke="#8A8A8A" stroke-linecap="round" stroke-linejoin="round"/>
<path id="Vector_2" d="M16.1667 12.5002C16.0558 12.7515 16.0227 13.0303 16.0717 13.3007C16.1207 13.571 16.2496 13.8204 16.4417 14.0168L16.4917 14.0668C16.6467 14.2216 16.7696 14.4054 16.8535 14.6078C16.9373 14.8101 16.9805 15.027 16.9805 15.246C16.9805 15.465 16.9373 15.6819 16.8535 15.8842C16.7696 16.0866 16.6467 16.2704 16.4917 16.4252C16.3369 16.5801 16.1531 16.7031 15.9508 16.7869C15.7484 16.8708 15.5316 16.914 15.3125 16.914C15.0935 16.914 14.8766 16.8708 14.6743 16.7869C14.472 16.7031 14.2882 16.5801 14.1334 16.4252L14.0834 16.3752C13.887 16.183 13.6375 16.0542 13.3672 16.0052C13.0969 15.9561 12.8181 15.9892 12.5667 16.1002C12.3202 16.2058 12.11 16.3812 11.962 16.6048C11.8139 16.8283 11.7344 17.0903 11.7334 17.3585V17.5002C11.7334 17.9422 11.5578 18.3661 11.2452 18.6787C10.9327 18.9912 10.5087 19.1668 10.0667 19.1668C9.62468 19.1668 9.20076 18.9912 8.8882 18.6787C8.57563 18.3661 8.40004 17.9422 8.40004 17.5002V17.4252C8.39359 17.1493 8.30431 16.8818 8.1438 16.6574C7.98329 16.433 7.75899 16.2621 7.50004 16.1668C7.24869 16.0559 6.96988 16.0228 6.69955 16.0718C6.42922 16.1208 6.17977 16.2497 5.98337 16.4418L5.93337 16.4918C5.77858 16.6468 5.59477 16.7697 5.39244 16.8536C5.19011 16.9375 4.97323 16.9806 4.75421 16.9806C4.53518 16.9806 4.3183 16.9375 4.11597 16.8536C3.91364 16.7697 3.72983 16.6468 3.57504 16.4918C3.42008 16.337 3.29715 16.1532 3.21327 15.9509C3.1294 15.7486 3.08623 15.5317 3.08623 15.3127C3.08623 15.0936 3.1294 14.8768 3.21327 14.6744C3.29715 14.4721 3.42008 14.2883 3.57504 14.1335L3.62504 14.0835C3.81715 13.8871 3.94603 13.6376 3.99504 13.3673C4.04406 13.097 4.01097 12.8182 3.90004 12.5668C3.7944 12.3204 3.619 12.1101 3.39543 11.9621C3.17185 11.814 2.90986 11.7346 2.64171 11.7335H2.50004C2.05801 11.7335 1.63409 11.5579 1.32153 11.2453C1.00897 10.9328 0.833374 10.5089 0.833374 10.0668C0.833374 9.6248 1.00897 9.20088 1.32153 8.88832C1.63409 8.57576 2.05801 8.40016 2.50004 8.40016H2.57504C2.85087 8.39371 3.11838 8.30443 3.34279 8.14392C3.5672 7.98341 3.73814 7.75911 3.83337 7.50016C3.9443 7.24882 3.97739 6.97 3.92838 6.69967C3.87936 6.42934 3.75049 6.17989 3.55837 5.9835L3.50837 5.9335C3.35341 5.77871 3.23048 5.59489 3.14661 5.39256C3.06273 5.19023 3.01956 4.97335 3.01956 4.75433C3.01956 4.5353 3.06273 4.31843 3.14661 4.1161C3.23048 3.91377 3.35341 3.72995 3.50837 3.57516C3.66316 3.4202 3.84698 3.29727 4.04931 3.2134C4.25164 3.12952 4.46851 3.08635 4.68754 3.08635C4.90657 3.08635 5.12344 3.12952 5.32577 3.2134C5.5281 3.29727 5.71192 3.4202 5.86671 3.57516L5.91671 3.62516C6.11311 3.81728 6.36255 3.94615 6.63288 3.99517C6.90321 4.04418 7.18203 4.01109 7.43337 3.90016H7.50004C7.74651 3.79453 7.95672 3.61913 8.10478 3.39555C8.25285 3.17198 8.3323 2.90998 8.33337 2.64183V2.50016C8.33337 2.05814 8.50897 1.63421 8.82153 1.32165C9.13409 1.00909 9.55801 0.833496 10 0.833496C10.4421 0.833496 10.866 1.00909 11.1786 1.32165C11.4911 1.63421 11.6667 2.05814 11.6667 2.50016V2.57516C11.6678 2.84332 11.7472 3.10531 11.8953 3.32888C12.0434 3.55246 12.2536 3.72786 12.5 3.8335C12.7514 3.94443 13.0302 3.97752 13.3005 3.9285C13.5709 3.87948 13.8203 3.75061 14.0167 3.5585L14.0667 3.5085C14.2215 3.35354 14.4053 3.2306 14.6076 3.14673C14.81 3.06286 15.0268 3.01968 15.2459 3.01968C15.4649 3.01968 15.6818 3.06286 15.8841 3.14673C16.0864 3.2306 16.2702 3.35354 16.425 3.5085C16.58 3.66328 16.7029 3.8471 16.7868 4.04943C16.8707 4.25176 16.9139 4.46864 16.9139 4.68766C16.9139 4.90669 16.8707 5.12357 16.7868 5.3259C16.7029 5.52823 16.58 5.71204 16.425 5.86683L16.375 5.91683C16.1829 6.11323 16.0541 6.36268 16.005 6.633C15.956 6.90333 15.9891 7.18215 16.1 7.4335V7.50016C16.2057 7.74664 16.3811 7.95684 16.6047 8.10491C16.8282 8.25297 17.0902 8.33243 17.3584 8.3335H17.5C17.9421 8.3335 18.366 8.50909 18.6785 8.82165C18.9911 9.13421 19.1667 9.55813 19.1667 10.0002C19.1667 10.4422 18.9911 10.8661 18.6785 11.1787C18.366 11.4912 17.9421 11.6668 17.5 11.6668H17.425C17.1569 11.6679 16.8949 11.7474 16.6713 11.8954C16.4477 12.0435 16.2723 12.2537 16.1667 12.5002V12.5002Z" stroke="#8A8A8A" stroke-linecap="round" stroke-linejoin="round"/>
</g>
<defs>
<clipPath id="clip0_78370_116">
<rect width="20" height="20" fill="white"/>
</clipPath>
</defs>
</svg>
